# xmcd
#
# Track frame offsets: 
#        151
#        15414
#        27945
#        46248
#        61171
#        75158
#        88467
#        101732
#        116407
#        128054
#        140619
#        155424
#        168717
#        189138
#        202421
#        215738
#        230269
#        244306
#        259711
#        278906
#        292795
#        307524
#        320829
#
# Disc length: 4440 seconds
#
# Revision: 3
# Processed by: cddbd v1.5PL3 Copyright (c) Steve Scherf et al.
# Submitted via: ExactAudioCopy v0.95a5
#
DISCID=40115617
DTITLE=Frank Sinatra - Golden Greats [CD2 of 3)
DYEAR=2001
DGENRE=Jazz
TTITLE0=There's No Business Like Show Business
TTITLE1=Almost Like Being In Love
TTITLE2=Ol' Man River
TTITLE3=I've Got A  Crush On You
TTITLE4=Night And Day
TTITLE5=How About You
TTITLE6=Oh! What A Beautiful 
TTITLE7=Time After Time
TTITLE8=That Old Black Magic
TTITLE9=All Of Me
TTITLE10=Autumn In New York
TTITLE11=I Couldn't Sleep A Wink
TTITLE12=Without A Song
TTITLE13=Dolores
TTITLE14=All Or Nothing At All
TTITLE15=I'll Never Smile Again
TTITLE16=I'll Be Seeing You
TTITLE17=The Night We Called It A Day
TTITLE18=Stormy Weather
TTITLE19=All Through The Day
TTITLE20=But Beautiful
TTITLE21=What Makes The Sunset
TTITLE22=The Sunshine Of Your Smile
EXTD=Subed By A Sydlexic :) YEAR: 2001
EXTT0=
EXTT1=
EXTT2=
EXTT3=
EXTT4=
EXTT5=
EXTT6=
EXTT7=
EXTT8=
EXTT9=
EXTT10=
EXTT11=
EXTT12=
EXTT13=
EXTT14=
EXTT15=
EXTT16=
EXTT17=
EXTT18=
EXTT19=
EXTT20=
EXTT21=
EXTT22=
PLAYORDER=
